#N canvas 703 402 873 384 10;
#X obj 21 333 netsend -u -b;
#X obj 183 9 table DMX 512;
#X obj 186 250 list prepend;
#X msg 276 252 list send 65 114 116 45 78 101 116 0 0 80 0 14 0 0 0
0 2 0;
#X obj 276 232 loadbang;
#X obj 186 273 list trim;
#X obj 186 111 metro 20;
#X obj 186 88 tgl 15 0 empty empty empty 17 7 0 10 -262144 -1 -1 1
1;
#X obj 21 39 inlet;
#X obj 21 76 sel 1;
#X msg 74 195 disconnect;
#N canvas 78 463 465 538 tabdump 0;
#X obj 92 168 until;
#X msg 92 142 512;
#X obj 92 207 f;
#X obj 124 232 + 1;
#X msg 131 164 0;
#X obj 92 260 tabread DMX;
#X obj 92 285 i;
#X obj 75 117 t b b b;
#X obj 92 307 min 255;
#X obj 92 330 max 0;
#X obj 73 88 inlet;
#X obj 92 429 outlet;
#X obj 92 399 textfile;
#X msg 190 214 clear;
#X msg 92 358 add2 \$1;
#X connect 0 0 2 0;
#X connect 1 0 0 0;
#X connect 2 0 3 0;
#X connect 2 0 5 0;
#X connect 3 0 2 1;
#X connect 4 0 2 1;
#X connect 5 0 6 0;
#X connect 6 0 8 0;
#X connect 7 0 12 0;
#X connect 7 1 1 0;
#X connect 7 2 4 0;
#X connect 7 2 13 0;
#X connect 8 0 9 0;
#X connect 9 0 14 0;
#X connect 10 0 7 0;
#X connect 12 0 11 0;
#X connect 13 0 12 0;
#X connect 14 0 12 0;
#X restore 186 169 pd tabdump;
#X msg 21 159 connect \$1 6454;
#X obj 21 115 symbol \$1;
#X obj 21 358 outlet;
#X text 285 343 Cyrille Henry 2017;
#X connect 0 0 14 0;
#X connect 2 0 5 0;
#X connect 3 0 2 1;
#X connect 4 0 3 0;
#X connect 5 0 0 0;
#X connect 6 0 11 0;
#X connect 7 0 6 0;
#X connect 8 0 9 0;
#X connect 8 0 7 0;
#X connect 9 0 13 0;
#X connect 9 1 10 0;
#X connect 10 0 0 0;
#X connect 11 0 2 0;
#X connect 12 0 0 0;
#X connect 13 0 12 0;
